%TF.GenerationSoftware,KiCad,Pcbnew,10.0.1-10.0.1~ubuntu24.04.1*%
%TF.CreationDate,2026-05-15T15:50:45-04:00*%
%TF.ProjectId,Buck,4275636b-2e6b-4696-9361-645f70636258,rev?*%
%TF.SameCoordinates,Original*%
%TF.FileFunction,Soldermask,Top*%
%TF.FilePolarity,Negative*%
%FSLAX46Y46*%
G04 Gerber Fmt 4.6, Leading zero omitted, Abs format (unit mm)*
G04 Created by KiCad (PCBNEW 10.0.1-10.0.1~ubuntu24.04.1) date 2026-05-15 15:50:45*
%MOMM*%
%LPD*%
G01*
G04 APERTURE LIST*
G04 Aperture macros list*
%AMRoundRect*
0 Rectangle with rounded corners*
0 $1 Rounding radius*
0 $2 $3 $4 $5 $6 $7 $8 $9 X,Y pos of 4 corners*
0 Add a 4 corners polygon primitive as box body*
4,1,4,$2,$3,$4,$5,$6,$7,$8,$9,$2,$3,0*
0 Add four circle primitives for the rounded corners*
1,1,$1+$1,$2,$3*
1,1,$1+$1,$4,$5*
1,1,$1+$1,$6,$7*
1,1,$1+$1,$8,$9*
0 Add four rect primitives between the rounded corners*
20,1,$1+$1,$2,$3,$4,$5,0*
20,1,$1+$1,$4,$5,$6,$7,0*
20,1,$1+$1,$6,$7,$8,$9,0*
20,1,$1+$1,$8,$9,$2,$3,0*%
G04 Aperture macros list end*
%ADD10RoundRect,0.249999X-0.850001X-0.850001X0.850001X-0.850001X0.850001X0.850001X-0.850001X0.850001X0*%
%ADD11C,2.200000*%
%ADD12RoundRect,0.237500X-0.250000X-0.237500X0.250000X-0.237500X0.250000X0.237500X-0.250000X0.237500X0*%
%ADD13RoundRect,0.160000X0.160000X-0.197500X0.160000X0.197500X-0.160000X0.197500X-0.160000X-0.197500X0*%
%ADD14RoundRect,0.250000X-0.350000X-0.450000X0.350000X-0.450000X0.350000X0.450000X-0.350000X0.450000X0*%
%ADD15RoundRect,0.155000X0.155000X-0.212500X0.155000X0.212500X-0.155000X0.212500X-0.155000X-0.212500X0*%
%ADD16R,0.558800X1.498600*%
%ADD17RoundRect,0.150000X0.150000X-0.825000X0.150000X0.825000X-0.150000X0.825000X-0.150000X-0.825000X0*%
%ADD18RoundRect,0.155000X-0.155000X0.212500X-0.155000X-0.212500X0.155000X-0.212500X0.155000X0.212500X0*%
%ADD19R,1.320800X0.508000*%
%ADD20O,5.204000X2.704000*%
%ADD21O,4.704000X2.454000*%
%ADD22O,2.454000X4.704000*%
%ADD23RoundRect,0.155000X-0.212500X-0.155000X0.212500X-0.155000X0.212500X0.155000X-0.212500X0.155000X0*%
%ADD24RoundRect,0.150000X0.825000X0.150000X-0.825000X0.150000X-0.825000X-0.150000X0.825000X-0.150000X0*%
%ADD25C,1.422400*%
%ADD26RoundRect,0.160000X-0.160000X0.197500X-0.160000X-0.197500X0.160000X-0.197500X0.160000X0.197500X0*%
%ADD27RoundRect,0.249999X0.850001X0.850001X-0.850001X0.850001X-0.850001X-0.850001X0.850001X-0.850001X0*%
%ADD28R,2.000000X1.905000*%
%ADD29O,2.000000X1.905000*%
%ADD30RoundRect,0.100000X0.100000X-0.217500X0.100000X0.217500X-0.100000X0.217500X-0.100000X-0.217500X0*%
%ADD31RoundRect,0.250000X-0.625000X0.400000X-0.625000X-0.400000X0.625000X-0.400000X0.625000X0.400000X0*%
%ADD32RoundRect,0.180000X0.420000X0.770000X-0.420000X0.770000X-0.420000X-0.770000X0.420000X-0.770000X0*%
%ADD33RoundRect,0.240000X0.560000X0.860000X-0.560000X0.860000X-0.560000X-0.860000X0.560000X-0.860000X0*%
%ADD34RoundRect,0.237500X-0.237500X0.250000X-0.237500X-0.250000X0.237500X-0.250000X0.237500X0.250000X0*%
%ADD35RoundRect,0.250000X-0.475000X0.337500X-0.475000X-0.337500X0.475000X-0.337500X0.475000X0.337500X0*%
%ADD36RoundRect,0.160000X-0.197500X-0.160000X0.197500X-0.160000X0.197500X0.160000X-0.197500X0.160000X0*%
%ADD37RoundRect,0.102000X-1.700000X0.550000X-1.700000X-0.550000X1.700000X-0.550000X1.700000X0.550000X0*%
%ADD38RoundRect,0.155000X0.212500X0.155000X-0.212500X0.155000X-0.212500X-0.155000X0.212500X-0.155000X0*%
%ADD39RoundRect,0.249999X0.450001X1.425001X-0.450001X1.425001X-0.450001X-1.425001X0.450001X-1.425001X0*%
%ADD40RoundRect,0.100000X-0.100000X0.217500X-0.100000X-0.217500X0.100000X-0.217500X0.100000X0.217500X0*%
G04 APERTURE END LIST*
D10*
%TO.C,D2*%
X74520000Y-92000000D03*
D11*
X84680000Y-92000000D03*
%TD*%
D12*
%TO.C,R1*%
X97087500Y-100689700D03*
X98912500Y-100689700D03*
%TD*%
D13*
%TO.C,R13*%
X94500000Y-102397500D03*
X94500000Y-101202500D03*
%TD*%
D14*
%TO.C,R3*%
X117500000Y-93300000D03*
X119500000Y-93300000D03*
%TD*%
D12*
%TO.C,R2*%
X101692500Y-100700000D03*
X103517500Y-100700000D03*
%TD*%
D15*
%TO.C,C6*%
X87000000Y-116000000D03*
X87000000Y-114865000D03*
%TD*%
D16*
%TO.C,IC1*%
X101160000Y-114710200D03*
X102430000Y-114710200D03*
X103700000Y-114710200D03*
X104970000Y-114710200D03*
X104970000Y-109300000D03*
X103700000Y-109300000D03*
X102430000Y-109300000D03*
X101160000Y-109300000D03*
%TD*%
D14*
%TO.C,R4*%
X112900000Y-93300000D03*
X114900000Y-93300000D03*
%TD*%
D17*
%TO.C,U1*%
X114895000Y-102475000D03*
X116165000Y-102475000D03*
X117435000Y-102475000D03*
X118705000Y-102475000D03*
X118705000Y-97525000D03*
X117435000Y-97525000D03*
X116165000Y-97525000D03*
X114895000Y-97525000D03*
%TD*%
D18*
%TO.C,C10*%
X113400000Y-97900000D03*
X113400000Y-99035000D03*
%TD*%
D19*
%TO.C,U5*%
X113093800Y-112050001D03*
X113093800Y-111100000D03*
X113093800Y-110149999D03*
X110706200Y-110149999D03*
X110706200Y-112050001D03*
%TD*%
D20*
%TO.C,J1*%
X102300000Y-97200000D03*
D21*
X102300000Y-91200000D03*
D22*
X97600000Y-94200000D03*
%TD*%
D19*
%TO.C,U2*%
X88400000Y-99299998D03*
X88400000Y-100249999D03*
X88400000Y-101200000D03*
X90787600Y-101200000D03*
X90787600Y-99299998D03*
%TD*%
D23*
%TO.C,C5*%
X110688701Y-113643799D03*
X111823701Y-113643799D03*
%TD*%
D24*
%TO.C,U4*%
X94075000Y-116005000D03*
X94075000Y-114735000D03*
X94075000Y-113465000D03*
X94075000Y-112195000D03*
X89125000Y-112195000D03*
X89125000Y-113465000D03*
X89125000Y-114735000D03*
X89125000Y-116005000D03*
%TD*%
D25*
%TO.C,J2*%
X75763400Y-86355500D03*
X78303400Y-86355500D03*
%TD*%
D26*
%TO.C,R7*%
X116900000Y-107900000D03*
X116900000Y-109095000D03*
%TD*%
D27*
%TO.C,D1*%
X122180000Y-88000000D03*
D11*
X112020000Y-88000000D03*
%TD*%
D23*
%TO.C,C2*%
X118565000Y-95500000D03*
X119700000Y-95500000D03*
%TD*%
D28*
%TO.C,Q1*%
X76700000Y-118580000D03*
D29*
X76700000Y-116040000D03*
X76700000Y-113500000D03*
%TD*%
D30*
%TO.C,C3*%
X120700000Y-109100000D03*
X120700000Y-108285000D03*
%TD*%
D31*
%TO.C,R8*%
X79600000Y-100550000D03*
X79600000Y-103650000D03*
%TD*%
D32*
%TO.C,RV1*%
X91800000Y-89600000D03*
D33*
X90800000Y-93550000D03*
D32*
X89800000Y-89600000D03*
%TD*%
D13*
%TO.C,R6*%
X119200000Y-109100000D03*
X119200000Y-107905000D03*
%TD*%
D26*
%TO.C,R10*%
X84200000Y-101202500D03*
X84200000Y-102397500D03*
%TD*%
D10*
%TO.C,D3*%
X75720000Y-106600000D03*
D11*
X85880000Y-106600000D03*
%TD*%
D34*
%TO.C,R5*%
X122800000Y-107287500D03*
X122800000Y-109112500D03*
%TD*%
D35*
%TO.C,C4*%
X76000000Y-100500000D03*
X76000000Y-102575000D03*
%TD*%
D36*
%TO.C,R14*%
X105605000Y-100699700D03*
X106800000Y-100699700D03*
%TD*%
%TO.C,R9*%
X83002500Y-98500000D03*
X84197500Y-98500000D03*
%TD*%
D23*
%TO.C,C9*%
X101232500Y-107100000D03*
X102367500Y-107100000D03*
%TD*%
D37*
%TO.C,L1*%
X76200000Y-95500000D03*
X76200000Y-98500000D03*
%TD*%
D38*
%TO.C,C7*%
X90261300Y-97449999D03*
X89126300Y-97449999D03*
%TD*%
D39*
%TO.C,R11*%
X95450000Y-106600000D03*
X89350000Y-106600000D03*
%TD*%
D40*
%TO.C,C1*%
X120200000Y-99792500D03*
X120200000Y-100607500D03*
%TD*%
D38*
%TO.C,C8*%
X95267500Y-117800000D03*
X94132500Y-117800000D03*
%TD*%
M02*
