%TF.GenerationSoftware,KiCad,Pcbnew,10.0.1-10.0.1~ubuntu24.04.1*%
%TF.CreationDate,2026-05-15T15:50:30-04:00*%
%TF.ProjectId,Buck,4275636b-2e6b-4696-9361-645f70636258,rev?*%
%TF.SameCoordinates,Original*%
%TF.FileFunction,Copper,L2,Bot*%
%TF.FilePolarity,Positive*%
%FSLAX46Y46*%
G04 Gerber Fmt 4.6, Leading zero omitted, Abs format (unit mm)*
G04 Created by KiCad (PCBNEW 10.0.1-10.0.1~ubuntu24.04.1) date 2026-05-15 15:50:30*
%MOMM*%
%LPD*%
G01*
G04 APERTURE LIST*
G04 Aperture macros list*
%AMRoundRect*
0 Rectangle with rounded corners*
0 $1 Rounding radius*
0 $2 $3 $4 $5 $6 $7 $8 $9 X,Y pos of 4 corners*
0 Add a 4 corners polygon primitive as box body*
4,1,4,$2,$3,$4,$5,$6,$7,$8,$9,$2,$3,0*
0 Add four circle primitives for the rounded corners*
1,1,$1+$1,$2,$3*
1,1,$1+$1,$4,$5*
1,1,$1+$1,$6,$7*
1,1,$1+$1,$8,$9*
0 Add four rect primitives between the rounded corners*
20,1,$1+$1,$2,$3,$4,$5,0*
20,1,$1+$1,$4,$5,$6,$7,0*
20,1,$1+$1,$6,$7,$8,$9,0*
20,1,$1+$1,$8,$9,$2,$3,0*%
G04 Aperture macros list end*
%TA.AperFunction,ComponentPad*%
%ADD10RoundRect,0.249999X-0.850001X-0.850001X0.850001X-0.850001X0.850001X0.850001X-0.850001X0.850001X0*%
%TD*%
%TA.AperFunction,ComponentPad*%
%ADD11C,2.200000*%
%TD*%
%TA.AperFunction,ComponentPad*%
%ADD12O,5.000000X2.500000*%
%TD*%
%TA.AperFunction,ComponentPad*%
%ADD13O,4.500000X2.250000*%
%TD*%
%TA.AperFunction,ComponentPad*%
%ADD14O,2.250000X4.500000*%
%TD*%
%TA.AperFunction,ComponentPad*%
%ADD15C,1.422400*%
%TD*%
%TA.AperFunction,ComponentPad*%
%ADD16RoundRect,0.249999X0.850001X0.850001X-0.850001X0.850001X-0.850001X-0.850001X0.850001X-0.850001X0*%
%TD*%
%TA.AperFunction,ComponentPad*%
%ADD17R,2.000000X1.905000*%
%TD*%
%TA.AperFunction,ComponentPad*%
%ADD18O,2.000000X1.905000*%
%TD*%
%TA.AperFunction,ViaPad*%
%ADD19C,0.600000*%
%TD*%
%TA.AperFunction,Conductor*%
%ADD20C,0.127000*%
%TD*%
%TA.AperFunction,Conductor*%
%ADD21C,0.200000*%
%TD*%
G04 APERTURE END LIST*
D10*
%TO.P,D2,1,K_1*%
%TO.N,Net-(D2-K)*%
X74520000Y-92000000D03*
D11*
%TO.P,D2,2,A_2*%
%TO.N,GND*%
X84680000Y-92000000D03*
%TD*%
D12*
%TO.P,J1,1*%
%TO.N,+12V*%
X102300000Y-97200000D03*
D13*
%TO.P,J1,2*%
%TO.N,GND*%
X102300000Y-91200000D03*
D14*
%TO.P,J1,3*%
X97600000Y-94200000D03*
%TD*%
D15*
%TO.P,J2,1,1_1*%
%TO.N,Buck_Output*%
X75763400Y-86355500D03*
%TO.P,J2,2,2_2*%
%TO.N,GND*%
X78303400Y-86355500D03*
%TD*%
D16*
%TO.P,D1,1,K_1*%
%TO.N,Net-(D1-K)*%
X122180000Y-88000000D03*
D11*
%TO.P,D1,2,A_2*%
%TO.N,Net-(D1-A)*%
X112020000Y-88000000D03*
%TD*%
D17*
%TO.P,Q1,1,G_1*%
%TO.N,Net-(Q1-G)*%
X76700000Y-118580000D03*
D18*
%TO.P,Q1,2,D_2*%
%TO.N,+12V*%
X76700000Y-116040000D03*
%TO.P,Q1,3,S_3*%
%TO.N,Net-(D2-K)*%
X76700000Y-113500000D03*
%TD*%
D10*
%TO.P,D3,1,K_1*%
%TO.N,Net-(D3-K)*%
X75720000Y-106600000D03*
D11*
%TO.P,D3,2,A_2*%
%TO.N,Net-(D3-A)*%
X85880000Y-106600000D03*
%TD*%
D19*
%TO.N,Net-(D2-K)*%
X79900000Y-113500000D03*
X84800000Y-113500000D03*
%TO.N,GND*%
X112900000Y-100135000D03*
X92500000Y-120500000D03*
X108000000Y-102000000D03*
X91500000Y-113000000D03*
%TO.N,+12V*%
X97700000Y-114219700D03*
X97400000Y-99500000D03*
X95914700Y-116005000D03*
%TO.N,+5V*%
X93100000Y-98500000D03*
X98200000Y-102300000D03*
%TO.N,Feedback*%
X96300000Y-102500000D03*
X86500000Y-97500000D03*
X99100000Y-116600000D03*
%TO.N,Net-(D1-K)*%
X122600000Y-104400000D03*
X116500000Y-104800000D03*
%TO.N,+1.5V*%
X105900000Y-102000000D03*
X114800000Y-109400000D03*
%TO.N,Tri_Out*%
X116900000Y-110400000D03*
X115100000Y-112100000D03*
%TO.N,Net-(U1-OUT)*%
X122800000Y-107287500D03*
X117600000Y-104800000D03*
%TO.N,Net-(Q1-G)*%
X87200000Y-120400000D03*
X87600000Y-114100000D03*
%TD*%
%TO.N,Net-(D2-K)*%
D20*
X79900000Y-113500000D02*
X84800000Y-113500000D01*
%TO.N,GND*%
X91500000Y-113000000D02*
X91500000Y-119500000D01*
X108000000Y-102000000D02*
X109865000Y-100135000D01*
X91500000Y-119500000D02*
X92500000Y-120500000D01*
X109865000Y-100135000D02*
X112900000Y-100135000D01*
%TO.N,+12V*%
X96759850Y-115159850D02*
X95914700Y-116005000D01*
X99700000Y-97200000D02*
X102300000Y-97200000D01*
X97400000Y-99500000D02*
X99700000Y-97200000D01*
X97700000Y-114219700D02*
X96759850Y-115159850D01*
%TO.N,+5V*%
X93100000Y-98500000D02*
X93600000Y-98500000D01*
X93100000Y-98500000D02*
X93700000Y-98500000D01*
X93600000Y-98500000D02*
X97400000Y-102300000D01*
X97400000Y-102300000D02*
X98200000Y-102300000D01*
%TO.N,Feedback*%
X99100000Y-116600000D02*
X99100000Y-105300000D01*
X99100000Y-105300000D02*
X96300000Y-102500000D01*
X87500000Y-102500000D02*
X96300000Y-102500000D01*
X86500000Y-97500000D02*
X86500000Y-101500000D01*
X86500000Y-101500000D02*
X87500000Y-102500000D01*
%TO.N,Net-(D1-K)*%
D21*
X116500000Y-104800000D02*
X117027000Y-104273000D01*
X122473000Y-104273000D02*
X122600000Y-104400000D01*
X117027000Y-104273000D02*
X122473000Y-104273000D01*
%TO.N,+1.5V*%
D20*
X113300000Y-109400000D02*
X114800000Y-109400000D01*
X105900000Y-102000000D02*
X113300000Y-109400000D01*
%TO.N,Tri_Out*%
X115200000Y-112100000D02*
X116900000Y-110400000D01*
X115100000Y-112100000D02*
X115200000Y-112100000D01*
%TO.N,Net-(U1-OUT)*%
D21*
X120312500Y-104800000D02*
X122800000Y-107287500D01*
X117600000Y-104800000D02*
X120312500Y-104800000D01*
%TO.N,Net-(Q1-G)*%
D20*
X87200000Y-120400000D02*
X87200000Y-114500000D01*
X87200000Y-114500000D02*
X87600000Y-114100000D01*
%TD*%
%TA.AperFunction,Conductor*%
%TO.N,GND*%
G36*
X126642539Y-83320185D02*
G01*
X126688294Y-83372989D01*
X126699500Y-83424500D01*
X126699500Y-121875500D01*
X126679815Y-121942539D01*
X126627011Y-121988294D01*
X126575500Y-121999500D01*
X72624500Y-121999500D01*
X72557461Y-121979815D01*
X72511706Y-121927011D01*
X72500500Y-121875500D01*
X72500500Y-120321153D01*
X86399500Y-120321153D01*
X86399500Y-120478846D01*
X86430261Y-120633489D01*
X86430264Y-120633501D01*
X86490602Y-120779172D01*
X86490609Y-120779185D01*
X86578210Y-120910288D01*
X86578213Y-120910292D01*
X86689707Y-121021786D01*
X86689711Y-121021789D01*
X86820814Y-121109390D01*
X86820827Y-121109397D01*
X86966498Y-121169735D01*
X86966503Y-121169737D01*
X87121153Y-121200499D01*
X87121156Y-121200500D01*
X87121158Y-121200500D01*
X87278844Y-121200500D01*
X87278845Y-121200499D01*
X87433497Y-121169737D01*
X87579179Y-121109394D01*
X87710289Y-121021789D01*
X87821789Y-120910289D01*
X87909394Y-120779179D01*
X87969737Y-120633497D01*
X88000500Y-120478842D01*
X88000500Y-120321158D01*
X88000500Y-120321155D01*
X88000499Y-120321153D01*
X87969738Y-120166510D01*
X87969737Y-120166503D01*
X87914439Y-120033000D01*
X87909397Y-120020827D01*
X87909390Y-120020814D01*
X87821789Y-119889711D01*
X87821786Y-119889707D01*
X87800319Y-119868240D01*
X87766834Y-119806917D01*
X87764000Y-119780559D01*
X87764000Y-114981377D01*
X87783685Y-114914338D01*
X87836489Y-114868583D01*
X87840528Y-114866824D01*
X87901701Y-114841486D01*
X87979173Y-114809397D01*
X87979176Y-114809395D01*
X87979179Y-114809394D01*
X88110289Y-114721789D01*
X88221789Y-114610289D01*
X88309394Y-114479179D01*
X88369737Y-114333497D01*
X88400500Y-114178842D01*
X88400500Y-114021158D01*
X88400500Y-114021155D01*
X88400499Y-114021153D01*
X88393546Y-113986198D01*
X88369737Y-113866503D01*
X88369735Y-113866498D01*
X88309397Y-113720827D01*
X88309390Y-113720814D01*
X88221789Y-113589711D01*
X88221786Y-113589707D01*
X88110292Y-113478213D01*
X88110288Y-113478210D01*
X87979185Y-113390609D01*
X87979172Y-113390602D01*
X87833501Y-113330264D01*
X87833489Y-113330261D01*
X87678845Y-113299500D01*
X87678842Y-113299500D01*
X87521158Y-113299500D01*
X87521155Y-113299500D01*
X87366510Y-113330261D01*
X87366498Y-113330264D01*
X87220827Y-113390602D01*
X87220814Y-113390609D01*
X87089711Y-113478210D01*
X87089707Y-113478213D01*
X86978213Y-113589707D01*
X86978210Y-113589711D01*
X86890609Y-113720814D01*
X86890602Y-113720827D01*
X86830264Y-113866498D01*
X86830261Y-113866510D01*
X86799500Y-114021153D01*
X86799500Y-114051521D01*
X86779815Y-114118560D01*
X86777460Y-114122091D01*
X86771093Y-114131289D01*
X86748687Y-114153696D01*
X86716530Y-114209394D01*
X86674435Y-114282304D01*
X86640370Y-114409441D01*
X86640369Y-114409445D01*
X86636000Y-114425748D01*
X86636000Y-119780559D01*
X86616315Y-119847598D01*
X86599681Y-119868240D01*
X86578213Y-119889707D01*
X86578210Y-119889711D01*
X86490609Y-120020814D01*
X86490602Y-120020827D01*
X86430264Y-120166498D01*
X86430261Y-120166510D01*
X86399500Y-120321153D01*
X72500500Y-120321153D01*
X72500500Y-113385646D01*
X75199500Y-113385646D01*
X75199500Y-113614353D01*
X75235278Y-113840246D01*
X75235278Y-113840249D01*
X75305950Y-114057755D01*
X75354835Y-114153696D01*
X75409783Y-114261538D01*
X75544214Y-114446566D01*
X75705934Y-114608286D01*
X75775423Y-114658773D01*
X75790438Y-114669682D01*
X75833103Y-114725013D01*
X75839082Y-114794626D01*
X75806476Y-114856421D01*
X75790438Y-114870318D01*
X75705932Y-114931715D01*
X75544216Y-115093431D01*
X75544216Y-115093432D01*
X75544214Y-115093434D01*
X75489907Y-115168181D01*
X75409783Y-115278461D01*
X75305950Y-115482244D01*
X75235278Y-115699750D01*
X75235278Y-115699753D01*
X75235278Y-115699755D01*
X75199500Y-115925646D01*
X75199500Y-116154354D01*
X75210028Y-116220827D01*
X75235278Y-116380246D01*
X75235278Y-116380249D01*
X75305950Y-116597755D01*
X75305952Y-116597758D01*
X75409783Y-116801538D01*
X75542525Y-116984242D01*
X75566005Y-117050046D01*
X75550180Y-117118100D01*
X75500074Y-117166795D01*
X75485541Y-117173308D01*
X75457670Y-117183703D01*
X75457664Y-117183706D01*
X75342455Y-117269952D01*
X75342452Y-117269955D01*
X75256206Y-117385164D01*
X75256202Y-117385171D01*
X75205908Y-117520017D01*
X75199501Y-117579616D01*
X75199501Y-117579623D01*
X75199500Y-117579635D01*
X75199500Y-119580370D01*
X75199501Y-119580376D01*
X75205908Y-119639983D01*
X75256202Y-119774828D01*
X75256206Y-119774835D01*
X75342452Y-119890044D01*
X75342455Y-119890047D01*
X75457664Y-119976293D01*
X75457671Y-119976297D01*
X75592517Y-120026591D01*
X75592516Y-120026591D01*
X75599444Y-120027335D01*
X75652127Y-120033000D01*
X77747872Y-120032999D01*
X77807483Y-120026591D01*
X77942331Y-119976296D01*
X78057546Y-119890046D01*
X78143796Y-119774831D01*
X78194091Y-119639983D01*
X78200500Y-119580373D01*
X78200499Y-117579628D01*
X78194091Y-117520017D01*
X78143796Y-117385169D01*
X78143795Y-117385168D01*
X78143793Y-117385164D01*
X78057547Y-117269955D01*
X78057544Y-117269952D01*
X77942335Y-117183706D01*
X77942328Y-117183702D01*
X77914459Y-117173308D01*
X77858525Y-117131437D01*
X77834108Y-117065973D01*
X77848960Y-116997700D01*
X77857460Y-116984260D01*
X77990217Y-116801538D01*
X78094048Y-116597758D01*
X78118938Y-116521155D01*
X78164721Y-116380249D01*
X78164721Y-116380248D01*
X78164722Y-116380245D01*
X78200500Y-116154354D01*
X78200500Y-115925646D01*
X78164722Y-115699755D01*
X78164721Y-115699751D01*
X78164721Y-115699750D01*
X78094049Y-115482244D01*
X78043589Y-115383211D01*
X77990217Y-115278462D01*
X77855786Y-115093434D01*
X77694066Y-114931714D01*
X77609559Y-114870316D01*
X77566896Y-114814988D01*
X77560917Y-114745375D01*
X77593523Y-114683580D01*
X77609556Y-114669685D01*
X77694066Y-114608286D01*
X77855786Y-114446566D01*
X77990217Y-114261538D01*
X78094048Y-114057758D01*
X78156188Y-113866510D01*
X78164721Y-113840249D01*
X78164721Y-113840248D01*
X78164722Y-113840245D01*
X78200500Y-113614354D01*
X78200500Y-113421153D01*
X79099500Y-113421153D01*
X79099500Y-113578846D01*
X79130261Y-113733489D01*
X79130264Y-113733501D01*
X79190602Y-113879172D01*
X79190609Y-113879185D01*
X79278210Y-114010288D01*
X79278213Y-114010292D01*
X79389707Y-114121786D01*
X79389711Y-114121789D01*
X79520814Y-114209390D01*
X79520827Y-114209397D01*
X79666498Y-114269735D01*
X79666503Y-114269737D01*
X79811315Y-114298542D01*
X79821153Y-114300499D01*
X79821156Y-114300500D01*
X79821158Y-114300500D01*
X79978844Y-114300500D01*
X79978845Y-114300499D01*
X80133497Y-114269737D01*
X80279179Y-114209394D01*
X80410289Y-114121789D01*
X80413518Y-114118560D01*
X80431760Y-114100319D01*
X80493083Y-114066834D01*
X80519441Y-114064000D01*
X84180559Y-114064000D01*
X84247598Y-114083685D01*
X84268240Y-114100319D01*
X84289707Y-114121786D01*
X84289711Y-114121789D01*
X84420814Y-114209390D01*
X84420827Y-114209397D01*
X84566498Y-114269735D01*
X84566503Y-114269737D01*
X84711315Y-114298542D01*
X84721153Y-114300499D01*
X84721156Y-114300500D01*
X84721158Y-114300500D01*
X84878844Y-114300500D01*
X84878845Y-114300499D01*
X85033497Y-114269737D01*
X85179179Y-114209394D01*
X85310289Y-114121789D01*
X85421789Y-114010289D01*
X85509394Y-113879179D01*
X85569737Y-113733497D01*
X85600500Y-113578842D01*
X85600500Y-113421158D01*
X85600500Y-113421155D01*
X85600499Y-113421153D01*
X85582419Y-113330261D01*
X85569737Y-113266503D01*
X85525519Y-113159750D01*
X85509397Y-113120827D01*
X85509390Y-113120814D01*
X85421789Y-112989711D01*
X85421786Y-112989707D01*
X85310292Y-112878213D01*
X85310288Y-112878210D01*
X85179185Y-112790609D01*
X85179172Y-112790602D01*
X85033501Y-112730264D01*
X85033489Y-112730261D01*
X84878845Y-112699500D01*
X84878842Y-112699500D01*
X84721158Y-112699500D01*
X84721155Y-112699500D01*
X84566510Y-112730261D01*
X84566498Y-112730264D01*
X84420827Y-112790602D01*
X84420814Y-112790609D01*
X84289711Y-112878210D01*
X84289707Y-112878213D01*
X84268240Y-112899681D01*
X84206917Y-112933166D01*
X84180559Y-112936000D01*
X80519441Y-112936000D01*
X80452402Y-112916315D01*
X80431760Y-112899681D01*
X80410292Y-112878213D01*
X80410288Y-112878210D01*
X80279185Y-112790609D01*
X80279172Y-112790602D01*
X80133501Y-112730264D01*
X80133489Y-112730261D01*
X79978845Y-112699500D01*
X79978842Y-112699500D01*
X79821158Y-112699500D01*
X79821155Y-112699500D01*
X79666510Y-112730261D01*
X79666498Y-112730264D01*
X79520827Y-112790602D01*
X79520814Y-112790609D01*
X79389711Y-112878210D01*
X79389707Y-112878213D01*
X79278213Y-112989707D01*
X79278210Y-112989711D01*
X79190609Y-113120814D01*
X79190602Y-113120827D01*
X79130264Y-113266498D01*
X79130261Y-113266510D01*
X79099500Y-113421153D01*
X78200500Y-113421153D01*
X78200500Y-113385646D01*
X78164722Y-113159755D01*
X78164721Y-113159751D01*
X78164721Y-113159750D01*
X78094049Y-112942244D01*
X78089424Y-112933166D01*
X77990217Y-112738462D01*
X77855786Y-112553434D01*
X77694066Y-112391714D01*
X77509038Y-112257283D01*
X77305255Y-112153450D01*
X77087748Y-112082778D01*
X76918326Y-112055944D01*
X76861854Y-112047000D01*
X76538146Y-112047000D01*
X76462849Y-112058926D01*
X76312253Y-112082778D01*
X76312250Y-112082778D01*
X76094744Y-112153450D01*
X75890961Y-112257283D01*
X75786074Y-112333489D01*
X75705934Y-112391714D01*
X75705932Y-112391716D01*
X75705931Y-112391716D01*
X75544216Y-112553431D01*
X75544216Y-112553432D01*
X75544214Y-112553434D01*
X75502907Y-112610288D01*
X75409783Y-112738461D01*
X75305950Y-112942244D01*
X75235278Y-113159750D01*
X75235278Y-113159753D01*
X75199500Y-113385646D01*
X72500500Y-113385646D01*
X72500500Y-105699982D01*
X74119500Y-105699982D01*
X74119500Y-107500017D01*
X74130000Y-107602796D01*
X74185185Y-107769332D01*
X74185187Y-107769337D01*
X74202738Y-107797792D01*
X74277288Y-107918656D01*
X74401344Y-108042712D01*
X74550665Y-108134814D01*
X74717202Y-108189999D01*
X74819990Y-108200500D01*
X74819995Y-108200500D01*
X76620005Y-108200500D01*
X76620010Y-108200500D01*
X76722798Y-108189999D01*
X76889335Y-108134814D01*
X77038656Y-108042712D01*
X77162712Y-107918656D01*
X77254814Y-107769335D01*
X77309999Y-107602798D01*
X77320500Y-107500010D01*
X77320500Y-106474038D01*
X84279500Y-106474038D01*
X84279500Y-106725962D01*
X84287617Y-106777211D01*
X84318910Y-106974785D01*
X84396760Y-107214383D01*
X84511132Y-107438848D01*
X84659201Y-107642649D01*
X84659205Y-107642654D01*
X84837345Y-107820794D01*
X84837350Y-107820798D01*
X85015117Y-107949952D01*
X85041155Y-107968870D01*
X85184184Y-108041747D01*
X85265616Y-108083239D01*
X85265618Y-108083239D01*
X85265621Y-108083241D01*
X85505215Y-108161090D01*
X85754038Y-108200500D01*
X85754039Y-108200500D01*
X86005961Y-108200500D01*
X86005962Y-108200500D01*
X86254785Y-108161090D01*
X86494379Y-108083241D01*
X86718845Y-107968870D01*
X86922656Y-107820793D01*
X87100793Y-107642656D01*
X87248870Y-107438845D01*
X87363241Y-107214379D01*
X87441090Y-106974785D01*
X87480500Y-106725962D01*
X87480500Y-106474038D01*
X87441090Y-106225215D01*
X87363241Y-105985621D01*
X87363239Y-105985618D01*
X87363239Y-105985616D01*
X87321747Y-105904184D01*
X87248870Y-105761155D01*
X87132147Y-105600499D01*
X87100798Y-105557350D01*
X87100794Y-105557345D01*
X86922654Y-105379205D01*
X86922649Y-105379201D01*
X86718848Y-105231132D01*
X86718847Y-105231131D01*
X86718845Y-105231130D01*
X86616897Y-105179185D01*
X86494383Y-105116760D01*
X86254785Y-105038910D01*
X86146669Y-105021786D01*
X86005962Y-104999500D01*
X85754038Y-104999500D01*
X85687738Y-105010001D01*
X85505214Y-105038910D01*
X85265616Y-105116760D01*
X85041151Y-105231132D01*
X84837350Y-105379201D01*
X84837345Y-105379205D01*
X84659205Y-105557345D01*
X84659201Y-105557350D01*
X84511132Y-105761151D01*
X84396760Y-105985616D01*
X84318910Y-106225214D01*
X84318910Y-106225215D01*
X84279500Y-106474038D01*
X77320500Y-106474038D01*
X77320500Y-105699990D01*
X77309999Y-105597202D01*
X77254814Y-105430665D01*
X77162712Y-105281344D01*
X77038656Y-105157288D01*
X76889335Y-105065186D01*
X76722798Y-105010001D01*
X76722796Y-105010000D01*
X76620017Y-104999500D01*
X76620010Y-104999500D01*
X74819990Y-104999500D01*
X74819982Y-104999500D01*
X74717203Y-105010000D01*
X74717202Y-105010001D01*
X74646320Y-105033489D01*
X74550667Y-105065185D01*
X74550662Y-105065187D01*
X74401342Y-105157289D01*
X74277289Y-105281342D01*
X74185187Y-105430662D01*
X74185185Y-105430667D01*
X74163106Y-105497297D01*
X74130001Y-105597202D01*
X74130001Y-105597203D01*
X74130000Y-105597203D01*
X74119500Y-105699982D01*
X72500500Y-105699982D01*
X72500500Y-97421153D01*
X85699500Y-97421153D01*
X85699500Y-97578846D01*
X85730261Y-97733489D01*
X85730264Y-97733501D01*
X85790602Y-97879172D01*
X85790609Y-97879185D01*
X85878209Y-98010287D01*
X85878210Y-98010288D01*
X85878211Y-98010289D01*
X85899681Y-98031759D01*
X85933166Y-98093080D01*
X85936000Y-98119440D01*
X85936000Y-101425747D01*
X85936000Y-101574253D01*
X85940383Y-101590609D01*
X85962861Y-101674500D01*
X85962861Y-101674501D01*
X85974433Y-101717692D01*
X85974434Y-101717694D01*
X85974435Y-101717696D01*
X86048687Y-101846304D01*
X86048689Y-101846306D01*
X86160761Y-101958378D01*
X86160766Y-101958382D01*
X87153696Y-102951313D01*
X87153697Y-102951314D01*
X87153699Y-102951315D01*
X87282300Y-103025563D01*
X87282301Y-103025563D01*
X87282304Y-103025565D01*
X87425748Y-103064001D01*
X87425751Y-103064001D01*
X87581849Y-103064001D01*
X87581865Y-103064000D01*
X95680559Y-103064000D01*
X95747598Y-103083685D01*
X95768240Y-103100319D01*
X95789707Y-103121786D01*
X95789711Y-103121789D01*
X95920814Y-103209390D01*
X95920827Y-103209397D01*
X96066498Y-103269735D01*
X96066503Y-103269737D01*
X96221153Y-103300499D01*
X96221156Y-103300500D01*
X96221158Y-103300500D01*
X96251522Y-103300500D01*
X96318561Y-103320185D01*
X96339203Y-103336819D01*
X98499681Y-105497297D01*
X98533166Y-105558620D01*
X98536000Y-105584978D01*
X98536000Y-113624259D01*
X98516315Y-113691298D01*
X98463511Y-113737053D01*
X98394353Y-113746997D01*
X98330797Y-113717972D01*
X98324319Y-113711940D01*
X98210292Y-113597913D01*
X98210288Y-113597910D01*
X98079185Y-113510309D01*
X98079172Y-113510302D01*
X97933501Y-113449964D01*
X97933489Y-113449961D01*
X97778845Y-113419200D01*
X97778842Y-113419200D01*
X97621158Y-113419200D01*
X97621155Y-113419200D01*
X97466510Y-113449961D01*
X97466498Y-113449964D01*
X97320827Y-113510302D01*
X97320814Y-113510309D01*
X97189711Y-113597910D01*
X97189707Y-113597913D01*
X97078213Y-113709407D01*
X97078210Y-113709411D01*
X96990609Y-113840514D01*
X96990602Y-113840527D01*
X96930264Y-113986198D01*
X96930261Y-113986210D01*
X96899500Y-114140853D01*
X96899500Y-114171221D01*
X96879815Y-114238260D01*
X96863181Y-114258902D01*
X96413546Y-114708537D01*
X95953903Y-115168181D01*
X95892580Y-115201666D01*
X95866222Y-115204500D01*
X95835855Y-115204500D01*
X95681210Y-115235261D01*
X95681198Y-115235264D01*
X95535527Y-115295602D01*
X95535514Y-115295609D01*
X95404411Y-115383210D01*
X95404407Y-115383213D01*
X95292913Y-115494707D01*
X95292910Y-115494711D01*
X95205309Y-115625814D01*
X95205302Y-115625827D01*
X95144964Y-115771498D01*
X95144961Y-115771510D01*
X95114200Y-115926153D01*
X95114200Y-116083846D01*
X95144961Y-116238489D01*
X95144964Y-116238501D01*
X95205302Y-116384172D01*
X95205309Y-116384185D01*
X95292910Y-116515288D01*
X95292913Y-116515292D01*
X95404407Y-116626786D01*
X95404411Y-116626789D01*
X95535514Y-116714390D01*
X95535527Y-116714397D01*
X95681198Y-116774735D01*
X95681203Y-116774737D01*
X95815940Y-116801538D01*
X95835853Y-116805499D01*
X95835856Y-116805500D01*
X95835858Y-116805500D01*
X95993544Y-116805500D01*
X95993545Y-116805499D01*
X96148197Y-116774737D01*
X96293879Y-116714394D01*
X96424989Y-116626789D01*
X96536489Y-116515289D01*
X96624094Y-116384179D01*
X96684437Y-116238497D01*
X96715200Y-116083842D01*
X96715200Y-116053478D01*
X96734885Y-115986439D01*
X96751519Y-115965797D01*
X96945818Y-115771498D01*
X97211163Y-115506154D01*
X97211163Y-115506152D01*
X97221367Y-115495949D01*
X97221370Y-115495944D01*
X97660797Y-115056519D01*
X97722120Y-115023034D01*
X97748478Y-115020200D01*
X97778844Y-115020200D01*
X97778845Y-115020199D01*
X97933497Y-114989437D01*
X98079179Y-114929094D01*
X98210289Y-114841489D01*
X98257152Y-114794626D01*
X98324319Y-114727460D01*
X98385642Y-114693975D01*
X98455334Y-114698959D01*
X98511267Y-114740831D01*
X98535684Y-114806295D01*
X98536000Y-114815141D01*
X98536000Y-115980559D01*
X98516315Y-116047598D01*
X98499681Y-116068240D01*
X98478213Y-116089707D01*
X98478210Y-116089711D01*
X98390609Y-116220814D01*
X98390602Y-116220827D01*
X98330264Y-116366498D01*
X98330261Y-116366510D01*
X98299500Y-116521153D01*
X98299500Y-116678846D01*
X98330261Y-116833489D01*
X98330264Y-116833501D01*
X98390602Y-116979172D01*
X98390609Y-116979185D01*
X98478210Y-117110288D01*
X98478213Y-117110292D01*
X98589707Y-117221786D01*
X98589711Y-117221789D01*
X98720814Y-117309390D01*
X98720827Y-117309397D01*
X98866498Y-117369735D01*
X98866503Y-117369737D01*
X99021153Y-117400499D01*
X99021156Y-117400500D01*
X99021158Y-117400500D01*
X99178844Y-117400500D01*
X99178845Y-117400499D01*
X99333497Y-117369737D01*
X99479179Y-117309394D01*
X99610289Y-117221789D01*
X99721789Y-117110289D01*
X99809394Y-116979179D01*
X99869737Y-116833497D01*
X99900500Y-116678842D01*
X99900500Y-116521158D01*
X99900500Y-116521155D01*
X99900499Y-116521153D01*
X99873253Y-116384179D01*
X99869737Y-116366503D01*
X99869735Y-116366498D01*
X99809397Y-116220827D01*
X99809390Y-116220814D01*
X99721789Y-116089711D01*
X99721786Y-116089707D01*
X99700319Y-116068240D01*
X99666834Y-116006917D01*
X99664000Y-115980559D01*
X99664000Y-112021153D01*
X114299500Y-112021153D01*
X114299500Y-112178846D01*
X114330261Y-112333489D01*
X114330264Y-112333501D01*
X114390602Y-112479172D01*
X114390609Y-112479185D01*
X114478210Y-112610288D01*
X114478213Y-112610292D01*
X114589707Y-112721786D01*
X114589711Y-112721789D01*
X114720814Y-112809390D01*
X114720827Y-112809397D01*
X114866498Y-112869735D01*
X114866503Y-112869737D01*
X115017041Y-112899681D01*
X115021153Y-112900499D01*
X115021156Y-112900500D01*
X115021158Y-112900500D01*
X115178844Y-112900500D01*
X115178845Y-112900499D01*
X115333497Y-112869737D01*
X115479179Y-112809394D01*
X115610289Y-112721789D01*
X115721789Y-112610289D01*
X115809394Y-112479179D01*
X115869737Y-112333497D01*
X115888624Y-112238542D01*
X115921006Y-112176635D01*
X115922499Y-112175115D01*
X116860797Y-111236819D01*
X116922120Y-111203334D01*
X116948478Y-111200500D01*
X116978844Y-111200500D01*
X116978845Y-111200499D01*
X117133497Y-111169737D01*
X117279179Y-111109394D01*
X117410289Y-111021789D01*
X117521789Y-110910289D01*
X117609394Y-110779179D01*
X117669737Y-110633497D01*
X117700500Y-110478842D01*
X117700500Y-110321158D01*
X117700500Y-110321155D01*
X117700499Y-110321153D01*
X117669738Y-110166510D01*
X117669737Y-110166503D01*
X117609794Y-110021786D01*
X117609397Y-110020827D01*
X117609390Y-110020814D01*
X117521789Y-109889710D01*
X117410292Y-109778213D01*
X117410288Y-109778210D01*
X117279185Y-109690609D01*
X117279172Y-109690602D01*
X117133501Y-109630264D01*
X117133489Y-109630261D01*
X116978845Y-109599500D01*
X116978842Y-109599500D01*
X116821158Y-109599500D01*
X116821155Y-109599500D01*
X116666510Y-109630261D01*
X116666498Y-109630264D01*
X116520827Y-109690602D01*
X116520814Y-109690609D01*
X116389711Y-109778210D01*
X116389707Y-109778213D01*
X116278213Y-109889707D01*
X116278211Y-109889710D01*
X116190609Y-110020814D01*
X116190602Y-110020827D01*
X116130264Y-110166498D01*
X116130261Y-110166510D01*
X116099500Y-110321153D01*
X116099500Y-110351521D01*
X116079815Y-110418560D01*
X116063181Y-110439202D01*
X115239202Y-111263181D01*
X115177879Y-111296666D01*
X115151521Y-111299500D01*
X115021155Y-111299500D01*
X114866510Y-111330261D01*
X114866498Y-111330264D01*
X114720827Y-111390602D01*
X114720814Y-111390609D01*
X114589711Y-111478210D01*
X114589707Y-111478213D01*
X114478213Y-111589707D01*
X114478210Y-111589711D01*
X114390609Y-111720814D01*
X114390602Y-111720827D01*
X114330264Y-111866498D01*
X114330261Y-111866510D01*
X114299500Y-112021153D01*
X99664000Y-112021153D01*
X99664000Y-105225746D01*
X99662378Y-105219695D01*
X99662377Y-105219693D01*
X99661031Y-105214669D01*
X99625565Y-105082304D01*
X99597386Y-105033497D01*
X99591821Y-105023858D01*
X99551315Y-104953699D01*
X99551314Y-104953698D01*
X99551313Y-104953696D01*
X99446304Y-104848687D01*
X99446303Y-104848686D01*
X99441973Y-104844356D01*
X99441962Y-104844346D01*
X97882119Y-103284503D01*
X97848634Y-103223180D01*
X97853618Y-103153488D01*
X97895490Y-103097555D01*
X97960954Y-103073138D01*
X97993992Y-103075205D01*
X98121155Y-103100500D01*
X98121158Y-103100500D01*
X98278844Y-103100500D01*
X98278845Y-103100499D01*
X98433497Y-103069737D01*
X98579179Y-103009394D01*
X98710289Y-102921789D01*
X98821789Y-102810289D01*
X98909394Y-102679179D01*
X98969737Y-102533497D01*
X99000500Y-102378842D01*
X99000500Y-102221158D01*
X99000500Y-102221155D01*
X99000499Y-102221153D01*
X98969738Y-102066510D01*
X98969737Y-102066503D01*
X98958429Y-102039203D01*
X98926666Y-101962518D01*
X98909532Y-101921153D01*
X105099500Y-101921153D01*
X105099500Y-102078846D01*
X105130261Y-102233489D01*
X105130264Y-102233501D01*
X105190602Y-102379172D01*
X105190609Y-102379185D01*
X105278210Y-102510288D01*
X105278213Y-102510292D01*
X105389707Y-102621786D01*
X105389711Y-102621789D01*
X105520814Y-102709390D01*
X105520827Y-102709397D01*
X105666498Y-102769735D01*
X105666503Y-102769737D01*
X105821153Y-102800499D01*
X105821156Y-102800500D01*
X105821158Y-102800500D01*
X105851522Y-102800500D01*
X105918561Y-102820185D01*
X105939203Y-102836819D01*
X112844346Y-109741962D01*
X112844356Y-109741973D01*
X112848686Y-109746303D01*
X112848687Y-109746304D01*
X112953696Y-109851313D01*
X113020203Y-109889711D01*
X113055844Y-109910289D01*
X113082303Y-109925565D01*
X113225747Y-109964000D01*
X113225748Y-109964000D01*
X114180559Y-109964000D01*
X114247598Y-109983685D01*
X114268240Y-110000319D01*
X114289707Y-110021786D01*
X114289711Y-110021789D01*
X114420814Y-110109390D01*
X114420827Y-110109397D01*
X114558683Y-110166498D01*
X114566503Y-110169737D01*
X114721153Y-110200499D01*
X114721156Y-110200500D01*
X114721158Y-110200500D01*
X114878844Y-110200500D01*
X114878845Y-110200499D01*
X115033497Y-110169737D01*
X115179179Y-110109394D01*
X115310289Y-110021789D01*
X115421789Y-109910289D01*
X115509394Y-109779179D01*
X115569737Y-109633497D01*
X115600500Y-109478842D01*
X115600500Y-109321158D01*
X115600500Y-109321155D01*
X115600499Y-109321153D01*
X115569738Y-109166510D01*
X115569737Y-109166503D01*
X115569735Y-109166498D01*
X115509397Y-109020827D01*
X115509390Y-109020814D01*
X115421789Y-108889711D01*
X115421786Y-108889707D01*
X115310292Y-108778213D01*
X115310288Y-108778210D01*
X115179185Y-108690609D01*
X115179172Y-108690602D01*
X115033501Y-108630264D01*
X115033489Y-108630261D01*
X114878845Y-108599500D01*
X114878842Y-108599500D01*
X114721158Y-108599500D01*
X114721155Y-108599500D01*
X114566510Y-108630261D01*
X114566498Y-108630264D01*
X114420827Y-108690602D01*
X114420814Y-108690609D01*
X114289711Y-108778210D01*
X114289707Y-108778213D01*
X114268240Y-108799681D01*
X114206917Y-108833166D01*
X114180559Y-108836000D01*
X113584978Y-108836000D01*
X113517939Y-108816315D01*
X113497297Y-108799681D01*
X109418769Y-104721153D01*
X115699500Y-104721153D01*
X115699500Y-104878846D01*
X115730261Y-105033489D01*
X115730264Y-105033501D01*
X115790602Y-105179172D01*
X115790609Y-105179185D01*
X115878210Y-105310288D01*
X115878213Y-105310292D01*
X115989707Y-105421786D01*
X115989711Y-105421789D01*
X116120814Y-105509390D01*
X116120827Y-105509397D01*
X116236598Y-105557350D01*
X116266503Y-105569737D01*
X116404578Y-105597202D01*
X116421153Y-105600499D01*
X116421156Y-105600500D01*
X116421158Y-105600500D01*
X116578844Y-105600500D01*
X116578845Y-105600499D01*
X116733497Y-105569737D01*
X116879179Y-105509394D01*
X116981111Y-105441284D01*
X117047786Y-105420408D01*
X117115166Y-105438892D01*
X117118847Y-105441257D01*
X117220821Y-105509394D01*
X117220823Y-105509395D01*
X117220827Y-105509397D01*
X117336598Y-105557350D01*
X117366503Y-105569737D01*
X117504578Y-105597202D01*
X117521153Y-105600499D01*
X117521156Y-105600500D01*
X117521158Y-105600500D01*
X117678844Y-105600500D01*
X117678845Y-105600499D01*
X117833497Y-105569737D01*
X117979179Y-105509394D01*
X117979185Y-105509390D01*
X118110875Y-105421398D01*
X118177553Y-105400520D01*
X118179766Y-105400500D01*
X120012403Y-105400500D01*
X120079442Y-105420185D01*
X120100084Y-105436819D01*
X121965425Y-107302160D01*
X121998910Y-107363483D01*
X121999361Y-107365649D01*
X122030261Y-107520991D01*
X122030264Y-107521001D01*
X122090602Y-107666672D01*
X122090609Y-107666685D01*
X122178210Y-107797788D01*
X122178213Y-107797792D01*
X122289707Y-107909286D01*
X122289711Y-107909289D01*
X122420814Y-107996890D01*
X122420827Y-107996897D01*
X122531431Y-108042710D01*
X122566503Y-108057237D01*
X122697223Y-108083239D01*
X122721153Y-108087999D01*
X122721156Y-108088000D01*
X122721158Y-108088000D01*
X122878844Y-108088000D01*
X122878845Y-108087999D01*
X123033497Y-108057237D01*
X123179179Y-107996894D01*
X123310289Y-107909289D01*
X123421789Y-107797789D01*
X123509394Y-107666679D01*
X123519348Y-107642649D01*
X123569735Y-107521001D01*
X123569737Y-107520997D01*
X123600500Y-107366342D01*
X123600500Y-107208658D01*
X123600500Y-107208655D01*
X123600499Y-107208653D01*
X123569738Y-107054010D01*
X123569737Y-107054003D01*
X123536924Y-106974785D01*
X123509397Y-106908327D01*
X123509390Y-106908314D01*
X123421789Y-106777211D01*
X123421786Y-106777207D01*
X123310292Y-106665713D01*
X123310288Y-106665710D01*
X123179185Y-106578109D01*
X123179172Y-106578102D01*
X123033501Y-106517764D01*
X123033491Y-106517761D01*
X122878149Y-106486861D01*
X122816238Y-106454476D01*
X122814660Y-106452925D01*
X121446916Y-105085181D01*
X121413431Y-105023858D01*
X121418415Y-104954166D01*
X121460287Y-104898233D01*
X121525751Y-104873816D01*
X121534597Y-104873500D01*
X121890059Y-104873500D01*
X121957098Y-104893185D01*
X121977740Y-104909819D01*
X122089707Y-105021786D01*
X122089711Y-105021789D01*
X122220814Y-105109390D01*
X122220827Y-105109397D01*
X122366498Y-105169735D01*
X122366503Y-105169737D01*
X122521153Y-105200499D01*
X122521156Y-105200500D01*
X122521158Y-105200500D01*
X122678844Y-105200500D01*
X122678845Y-105200499D01*
X122833497Y-105169737D01*
X122979179Y-105109394D01*
X123110289Y-105021789D01*
X123221789Y-104910289D01*
X123309394Y-104779179D01*
X123369737Y-104633497D01*
X123400500Y-104478842D01*
X123400500Y-104321158D01*
X123400500Y-104321155D01*
X123400499Y-104321153D01*
X123372066Y-104178211D01*
X123369737Y-104166503D01*
X123338298Y-104090602D01*
X123309397Y-104020827D01*
X123309390Y-104020814D01*
X123221789Y-103889711D01*
X123221786Y-103889707D01*
X123110292Y-103778213D01*
X123110288Y-103778210D01*
X122979185Y-103690609D01*
X122979172Y-103690602D01*
X122833501Y-103630264D01*
X122833489Y-103630261D01*
X122678845Y-103599500D01*
X122678842Y-103599500D01*
X122521158Y-103599500D01*
X122521155Y-103599500D01*
X122366511Y-103630260D01*
X122366501Y-103630263D01*
X122287321Y-103663061D01*
X122239869Y-103672500D01*
X117113670Y-103672500D01*
X117113654Y-103672499D01*
X117106058Y-103672499D01*
X116947943Y-103672499D01*
X116880357Y-103690609D01*
X116795214Y-103713423D01*
X116795209Y-103713426D01*
X116658290Y-103792475D01*
X116658282Y-103792481D01*
X116485337Y-103965426D01*
X116424014Y-103998911D01*
X116421848Y-103999362D01*
X116266508Y-104030261D01*
X116266498Y-104030264D01*
X116120827Y-104090602D01*
X116120814Y-104090609D01*
X115989711Y-104178210D01*
X115989707Y-104178213D01*
X115878213Y-104289707D01*
X115878210Y-104289711D01*
X115790609Y-104420814D01*
X115790602Y-104420827D01*
X115730264Y-104566498D01*
X115730261Y-104566510D01*
X115699500Y-104721153D01*
X109418769Y-104721153D01*
X106736819Y-102039203D01*
X106703334Y-101977880D01*
X106700500Y-101951522D01*
X106700500Y-101921155D01*
X106700499Y-101921153D01*
X106685611Y-101846306D01*
X106669737Y-101766503D01*
X106667255Y-101760511D01*
X106609397Y-101620827D01*
X106609390Y-101620814D01*
X106521789Y-101489711D01*
X106521786Y-101489707D01*
X106410292Y-101378213D01*
X106410288Y-101378210D01*
X106279185Y-101290609D01*
X106279172Y-101290602D01*
X106133501Y-101230264D01*
X106133489Y-101230261D01*
X105978845Y-101199500D01*
X105978842Y-101199500D01*
X105821158Y-101199500D01*
X105821155Y-101199500D01*
X105666510Y-101230261D01*
X105666498Y-101230264D01*
X105520827Y-101290602D01*
X105520814Y-101290609D01*
X105389711Y-101378210D01*
X105389707Y-101378213D01*
X105278213Y-101489707D01*
X105278210Y-101489711D01*
X105190609Y-101620814D01*
X105190602Y-101620827D01*
X105130264Y-101766498D01*
X105130261Y-101766510D01*
X105099500Y-101921153D01*
X98909532Y-101921153D01*
X98909395Y-101920823D01*
X98909390Y-101920814D01*
X98821789Y-101789711D01*
X98821786Y-101789707D01*
X98710292Y-101678213D01*
X98710288Y-101678210D01*
X98579185Y-101590609D01*
X98579172Y-101590602D01*
X98433501Y-101530264D01*
X98433489Y-101530261D01*
X98278845Y-101499500D01*
X98278842Y-101499500D01*
X98121158Y-101499500D01*
X98121155Y-101499500D01*
X97966510Y-101530261D01*
X97966498Y-101530264D01*
X97820827Y-101590602D01*
X97820816Y-101590608D01*
X97706055Y-101667289D01*
X97639378Y-101688166D01*
X97571998Y-101669681D01*
X97549484Y-101651867D01*
X97097117Y-101199500D01*
X95318769Y-99421153D01*
X96599500Y-99421153D01*
X96599500Y-99578846D01*
X96630261Y-99733489D01*
X96630264Y-99733501D01*
X96690602Y-99879172D01*
X96690609Y-99879185D01*
X96778210Y-100010288D01*
X96778213Y-100010292D01*
X96889707Y-100121786D01*
X96889711Y-100121789D01*
X97020814Y-100209390D01*
X97020827Y-100209397D01*
X97166498Y-100269735D01*
X97166503Y-100269737D01*
X97321153Y-100300499D01*
X97321156Y-100300500D01*
X97321158Y-100300500D01*
X97478844Y-100300500D01*
X97478845Y-100300499D01*
X97633497Y-100269737D01*
X97779179Y-100209394D01*
X97910289Y-100121789D01*
X98021789Y-100010289D01*
X98109394Y-99879179D01*
X98169737Y-99733497D01*
X98200500Y-99578842D01*
X98200500Y-99548477D01*
X98220185Y-99481438D01*
X98236814Y-99460801D01*
X99461718Y-98235896D01*
X99523039Y-98202413D01*
X99592731Y-98207397D01*
X99647772Y-98248092D01*
X99731081Y-98356661D01*
X99731089Y-98356670D01*
X99893330Y-98518911D01*
X99893338Y-98518918D01*
X100075382Y-98658607D01*
X100075385Y-98658608D01*
X100075388Y-98658611D01*
X100274112Y-98773344D01*
X100274117Y-98773346D01*
X100274123Y-98773349D01*
X100315793Y-98790609D01*
X100486113Y-98861158D01*
X100707762Y-98920548D01*
X100935266Y-98950500D01*
X100935273Y-98950500D01*
X103664727Y-98950500D01*
X103664734Y-98950500D01*
X103892238Y-98920548D01*
X104113887Y-98861158D01*
X104325888Y-98773344D01*
X104524612Y-98658611D01*
X104706661Y-98518919D01*
X104706665Y-98518914D01*
X104706670Y-98518911D01*
X104868911Y-98356670D01*
X104868914Y-98356665D01*
X104868919Y-98356661D01*
X105008611Y-98174612D01*
X105123344Y-97975888D01*
X105211158Y-97763887D01*
X105270548Y-97542238D01*
X105300500Y-97314734D01*
X105300500Y-97085266D01*
X105270548Y-96857762D01*
X105211158Y-96636113D01*
X105123344Y-96424112D01*
X105008611Y-96225388D01*
X105008608Y-96225385D01*
X105008607Y-96225382D01*
X104868918Y-96043338D01*
X104868911Y-96043330D01*
X104706670Y-95881089D01*
X104706661Y-95881081D01*
X104524617Y-95741392D01*
X104325890Y-95626657D01*
X104325876Y-95626650D01*
X104113887Y-95538842D01*
X103892238Y-95479452D01*
X103854215Y-95474446D01*
X103664741Y-95449500D01*
X103664734Y-95449500D01*
X100935266Y-95449500D01*
X100935258Y-95449500D01*
X100718715Y-95478009D01*
X100707762Y-95479452D01*
X100614076Y-95504554D01*
X100486112Y-95538842D01*
X100274123Y-95626650D01*
X100274109Y-95626657D01*
X100075382Y-95741392D01*
X99893338Y-95881081D01*
X99731081Y-96043338D01*
X99591392Y-96225382D01*
X99476657Y-96424109D01*
X99476650Y-96424123D01*
X99388843Y-96636109D01*
X99369101Y-96709788D01*
X99361083Y-96723674D01*
X99358159Y-96737119D01*
X99337008Y-96765373D01*
X99248688Y-96853695D01*
X99248687Y-96853696D01*
X99248685Y-96853698D01*
X98338497Y-97763887D01*
X97439203Y-98663181D01*
X97377880Y-98696666D01*
X97351522Y-98699500D01*
X97321155Y-98699500D01*
X97166510Y-98730261D01*
X97166498Y-98730264D01*
X97020827Y-98790602D01*
X97020814Y-98790609D01*
X96889711Y-98878210D01*
X96889707Y-98878213D01*
X96778213Y-98989707D01*
X96778210Y-98989711D01*
X96690609Y-99120814D01*
X96690602Y-99120827D01*
X96630264Y-99266498D01*
X96630261Y-99266510D01*
X96599500Y-99421153D01*
X95318769Y-99421153D01*
X94265765Y-98368149D01*
X94233672Y-98312562D01*
X94225565Y-98282304D01*
X94151313Y-98153696D01*
X94046304Y-98048687D01*
X93917696Y-97974435D01*
X93774252Y-97936000D01*
X93774251Y-97936000D01*
X93719441Y-97936000D01*
X93652402Y-97916315D01*
X93631760Y-97899681D01*
X93610292Y-97878213D01*
X93610288Y-97878210D01*
X93479185Y-97790609D01*
X93479172Y-97790602D01*
X93333501Y-97730264D01*
X93333489Y-97730261D01*
X93178845Y-97699500D01*
X93178842Y-97699500D01*
X93021158Y-97699500D01*
X93021155Y-97699500D01*
X92866510Y-97730261D01*
X92866498Y-97730264D01*
X92720827Y-97790602D01*
X92720814Y-97790609D01*
X92589711Y-97878210D01*
X92589707Y-97878213D01*
X92478213Y-97989707D01*
X92478210Y-97989711D01*
X92390609Y-98120814D01*
X92390602Y-98120827D01*
X92330264Y-98266498D01*
X92330261Y-98266510D01*
X92299500Y-98421153D01*
X92299500Y-98578846D01*
X92330261Y-98733489D01*
X92330264Y-98733501D01*
X92390602Y-98879172D01*
X92390609Y-98879185D01*
X92478210Y-99010288D01*
X92478213Y-99010292D01*
X92589707Y-99121786D01*
X92589711Y-99121789D01*
X92720814Y-99209390D01*
X92720827Y-99209397D01*
X92839210Y-99258432D01*
X92866503Y-99269737D01*
X93021153Y-99300499D01*
X93021156Y-99300500D01*
X93021158Y-99300500D01*
X93178844Y-99300500D01*
X93178845Y-99300499D01*
X93333497Y-99269737D01*
X93425685Y-99231551D01*
X93495151Y-99224083D01*
X93557630Y-99255358D01*
X93560815Y-99258431D01*
X95917189Y-101614806D01*
X95925981Y-101630908D01*
X95938846Y-101643996D01*
X95942379Y-101660938D01*
X95950673Y-101676127D01*
X95949363Y-101694431D01*
X95953110Y-101712394D01*
X95946923Y-101728554D01*
X95945689Y-101745819D01*
X95934690Y-101760511D01*
X95928131Y-101777646D01*
X95906989Y-101797513D01*
X95903817Y-101801752D01*
X95902961Y-101802388D01*
X95900699Y-101804050D01*
X95789711Y-101878211D01*
X95761590Y-101906331D01*
X95754013Y-101911903D01*
X95729654Y-101920750D01*
X95706917Y-101933166D01*
X95690659Y-101934914D01*
X95688341Y-101935756D01*
X95686566Y-101935354D01*
X95680559Y-101936000D01*
X87784979Y-101936000D01*
X87717940Y-101916315D01*
X87697298Y-101899681D01*
X87100319Y-101302702D01*
X87066834Y-101241379D01*
X87064000Y-101215021D01*
X87064000Y-98119440D01*
X87083685Y-98052401D01*
X87100315Y-98031762D01*
X87121789Y-98010289D01*
X87209394Y-97879179D01*
X87269737Y-97733497D01*
X87300500Y-97578842D01*
X87300500Y-97421158D01*
X87300500Y-97421155D01*
X87300499Y-97421153D01*
X87269738Y-97266510D01*
X87269737Y-97266503D01*
X87269735Y-97266498D01*
X87209397Y-97120827D01*
X87209390Y-97120814D01*
X87121789Y-96989711D01*
X87121786Y-96989707D01*
X87010292Y-96878213D01*
X87010288Y-96878210D01*
X86879185Y-96790609D01*
X86879172Y-96790602D01*
X86733501Y-96730264D01*
X86733489Y-96730261D01*
X86578845Y-96699500D01*
X86578842Y-96699500D01*
X86421158Y-96699500D01*
X86421155Y-96699500D01*
X86266510Y-96730261D01*
X86266498Y-96730264D01*
X86120827Y-96790602D01*
X86120814Y-96790609D01*
X85989711Y-96878210D01*
X85989707Y-96878213D01*
X85878213Y-96989707D01*
X85878210Y-96989711D01*
X85790609Y-97120814D01*
X85790602Y-97120827D01*
X85730264Y-97266498D01*
X85730261Y-97266510D01*
X85699500Y-97421153D01*
X72500500Y-97421153D01*
X72500500Y-91099982D01*
X72919500Y-91099982D01*
X72919500Y-92900017D01*
X72930000Y-93002796D01*
X72973535Y-93134174D01*
X72985186Y-93169335D01*
X73077288Y-93318656D01*
X73201344Y-93442712D01*
X73350665Y-93534814D01*
X73517202Y-93589999D01*
X73619990Y-93600500D01*
X73619995Y-93600500D01*
X75420005Y-93600500D01*
X75420010Y-93600500D01*
X75522798Y-93589999D01*
X75689335Y-93534814D01*
X75838656Y-93442712D01*
X75962712Y-93318656D01*
X76054814Y-93169335D01*
X76109999Y-93002798D01*
X76120500Y-92900010D01*
X76120500Y-91874071D01*
X83080000Y-91874071D01*
X83080000Y-92125928D01*
X83119397Y-92374669D01*
X83197219Y-92614184D01*
X83311557Y-92838583D01*
X83385748Y-92940697D01*
X83385748Y-92940698D01*
X84156212Y-92170234D01*
X84167482Y-92212292D01*
X84239890Y-92337708D01*
X84342292Y-92440110D01*
X84467708Y-92512518D01*
X84509765Y-92523787D01*
X83739300Y-93294250D01*
X83841416Y-93368442D01*
X84065815Y-93482780D01*
X84305330Y-93560602D01*
X84554072Y-93600000D01*
X84805928Y-93600000D01*
X85054669Y-93560602D01*
X85294184Y-93482780D01*
X85518575Y-93368446D01*
X85518581Y-93368442D01*
X85620697Y-93294250D01*
X85620698Y-93294250D01*
X85273558Y-92947110D01*
X95975000Y-92947110D01*
X95975000Y-93950000D01*
X97100000Y-93950000D01*
X97100000Y-94450000D01*
X95975000Y-94450000D01*
X95975000Y-95452889D01*
X96015013Y-95705523D01*
X96094051Y-95948781D01*
X96094052Y-95948784D01*
X96210175Y-96176686D01*
X96360521Y-96383619D01*
X96541380Y-96564478D01*
X96748313Y-96714824D01*
X96976215Y-96830947D01*
X96976218Y-96830948D01*
X97219475Y-96909986D01*
X97350000Y-96930659D01*
X97350000Y-95633012D01*
X97407007Y-95665925D01*
X97534174Y-95700000D01*
X97665826Y-95700000D01*
X97792993Y-95665925D01*
X97850000Y-95633012D01*
X97850000Y-96930658D01*
X97980522Y-96909986D01*
X97980525Y-96909986D01*
X98223781Y-96830948D01*
X98223784Y-96830947D01*
X98451686Y-96714824D01*
X98658619Y-96564478D01*
X98839478Y-96383619D01*
X98989824Y-96176686D01*
X99105947Y-95948784D01*
X99105948Y-95948781D01*
X99184986Y-95705523D01*
X99225000Y-95452889D01*
X99225000Y-94450000D01*
X98100000Y-94450000D01*
X98100000Y-93950000D01*
X99225000Y-93950000D01*
X99225000Y-92947110D01*
X99184986Y-92694476D01*
X99105948Y-92451218D01*
X99105947Y-92451215D01*
X98989824Y-92223313D01*
X98839478Y-92016380D01*
X98658619Y-91835521D01*
X98451686Y-91685175D01*
X98223784Y-91569052D01*
X98223781Y-91569051D01*
X98106263Y-91530868D01*
X97980523Y-91490013D01*
X97850000Y-91469339D01*
X97850000Y-92766988D01*
X97792993Y-92734075D01*
X97665826Y-92700000D01*
X97534174Y-92700000D01*
X97407007Y-92734075D01*
X97350000Y-92766988D01*
X97350000Y-91469339D01*
X97219476Y-91490013D01*
X96976218Y-91569051D01*
X96976215Y-91569052D01*
X96748313Y-91685175D01*
X96541380Y-91835521D01*
X96360521Y-92016380D01*
X96210175Y-92223313D01*
X96094052Y-92451215D01*
X96094051Y-92451218D01*
X96015013Y-92694476D01*
X95975000Y-92947110D01*
X85273558Y-92947110D01*
X84850234Y-92523787D01*
X84892292Y-92512518D01*
X85017708Y-92440110D01*
X85120110Y-92337708D01*
X85192518Y-92212292D01*
X85203787Y-92170235D01*
X85974250Y-92940698D01*
X85974250Y-92940697D01*
X86026087Y-92869352D01*
X86026088Y-92869350D01*
X86048438Y-92838588D01*
X86048446Y-92838575D01*
X86162780Y-92614184D01*
X86240602Y-92374669D01*
X86280000Y-92125928D01*
X86280000Y-91874071D01*
X86240602Y-91625330D01*
X86162780Y-91385815D01*
X86048440Y-91161413D01*
X85974722Y-91059948D01*
X85974721Y-91059947D01*
X85974252Y-91059301D01*
X85974250Y-91059300D01*
X85203787Y-91829764D01*
X85192518Y-91787708D01*
X85120110Y-91662292D01*
X85017708Y-91559890D01*
X84892292Y-91487482D01*
X84850232Y-91476212D01*
X85376445Y-90950000D01*
X99569340Y-90950000D01*
X100866988Y-90950000D01*
X100834075Y-91007007D01*
X100800000Y-91134174D01*
X100800000Y-91265826D01*
X100834075Y-91392993D01*
X100866988Y-91450000D01*
X99569340Y-91450000D01*
X99590013Y-91580523D01*
X99669051Y-91823781D01*
X99669052Y-91823784D01*
X99785175Y-92051686D01*
X99935521Y-92258619D01*
X100116380Y-92439478D01*
X100323313Y-92589824D01*
X100551215Y-92705947D01*
X100551218Y-92705948D01*
X100794476Y-92784986D01*
X101047111Y-92825000D01*
X102050000Y-92825000D01*
X102050000Y-91700000D01*
X102550000Y-91700000D01*
X102550000Y-92825000D01*
X103552889Y-92825000D01*
X103805523Y-92784986D01*
X104048781Y-92705948D01*
X104048784Y-92705947D01*
X104276686Y-92589824D01*
X104483619Y-92439478D01*
X104664478Y-92258619D01*
X104814824Y-92051686D01*
X104930947Y-91823784D01*
X104930948Y-91823781D01*
X105009986Y-91580523D01*
X105030660Y-91450000D01*
X103733012Y-91450000D01*
X103765925Y-91392993D01*
X103800000Y-91265826D01*
X103800000Y-91134174D01*
X103765925Y-91007007D01*
X103733012Y-90950000D01*
X105030660Y-90950000D01*
X105009986Y-90819476D01*
X104930948Y-90576218D01*
X104930947Y-90576215D01*
X104814824Y-90348313D01*
X104664478Y-90141380D01*
X104483619Y-89960521D01*
X104276686Y-89810175D01*
X104048784Y-89694052D01*
X104048781Y-89694051D01*
X103805523Y-89615013D01*
X103552889Y-89575000D01*
X102550000Y-89575000D01*
X102550000Y-90700000D01*
X102050000Y-90700000D01*
X102050000Y-89575000D01*
X101047111Y-89575000D01*
X100794476Y-89615013D01*
X100551218Y-89694051D01*
X100551215Y-89694052D01*
X100323313Y-89810175D01*
X100116380Y-89960521D01*
X99935521Y-90141380D01*
X99785175Y-90348313D01*
X99669052Y-90576215D01*
X99669051Y-90576218D01*
X99590013Y-90819476D01*
X99569340Y-90950000D01*
X85376445Y-90950000D01*
X85620698Y-90705748D01*
X85518583Y-90631557D01*
X85294184Y-90517219D01*
X85054669Y-90439397D01*
X84805928Y-90400000D01*
X84554072Y-90400000D01*
X84305330Y-90439397D01*
X84065815Y-90517219D01*
X83841413Y-90631559D01*
X83739301Y-90705747D01*
X83739300Y-90705748D01*
X84509765Y-91476212D01*
X84467708Y-91487482D01*
X84342292Y-91559890D01*
X84239890Y-91662292D01*
X84167482Y-91787708D01*
X84156212Y-91829765D01*
X83385748Y-91059300D01*
X83385747Y-91059301D01*
X83311559Y-91161413D01*
X83197219Y-91385815D01*
X83119397Y-91625330D01*
X83080000Y-91874071D01*
X76120500Y-91874071D01*
X76120500Y-91099990D01*
X76109999Y-90997202D01*
X76054814Y-90830665D01*
X75962712Y-90681344D01*
X75838656Y-90557288D01*
X75689335Y-90465186D01*
X75522798Y-90410001D01*
X75522796Y-90410000D01*
X75420017Y-90399500D01*
X75420010Y-90399500D01*
X73619990Y-90399500D01*
X73619982Y-90399500D01*
X73517203Y-90410000D01*
X73517202Y-90410001D01*
X73434669Y-90437349D01*
X73350667Y-90465185D01*
X73350662Y-90465187D01*
X73201342Y-90557289D01*
X73077289Y-90681342D01*
X72985187Y-90830662D01*
X72985185Y-90830667D01*
X72957349Y-90914669D01*
X72930001Y-90997202D01*
X72930001Y-90997203D01*
X72930000Y-90997203D01*
X72919500Y-91099982D01*
X72500500Y-91099982D01*
X72500500Y-87874038D01*
X110419500Y-87874038D01*
X110419500Y-88125961D01*
X110458910Y-88374785D01*
X110536760Y-88614383D01*
X110651132Y-88838848D01*
X110799201Y-89042649D01*
X110799205Y-89042654D01*
X110977345Y-89220794D01*
X110977350Y-89220798D01*
X111155117Y-89349952D01*
X111181155Y-89368870D01*
X111324184Y-89441747D01*
X111405616Y-89483239D01*
X111405618Y-89483239D01*
X111405621Y-89483241D01*
X111645215Y-89561090D01*
X111894038Y-89600500D01*
X111894039Y-89600500D01*
X112145961Y-89600500D01*
X112145962Y-89600500D01*
X112394785Y-89561090D01*
X112634379Y-89483241D01*
X112858845Y-89368870D01*
X113062656Y-89220793D01*
X113240793Y-89042656D01*
X113388870Y-88838845D01*
X113503241Y-88614379D01*
X113581090Y-88374785D01*
X113620500Y-88125962D01*
X113620500Y-87874038D01*
X113581090Y-87625215D01*
X113503241Y-87385621D01*
X113503239Y-87385618D01*
X113503239Y-87385616D01*
X113388869Y-87161154D01*
X113388865Y-87161148D01*
X113344426Y-87099982D01*
X120579500Y-87099982D01*
X120579500Y-88900017D01*
X120590000Y-89002796D01*
X120645185Y-89169332D01*
X120645186Y-89169335D01*
X120737288Y-89318656D01*
X120861344Y-89442712D01*
X121010665Y-89534814D01*
X121177202Y-89589999D01*
X121279990Y-89600500D01*
X121279995Y-89600500D01*
X123080005Y-89600500D01*
X123080010Y-89600500D01*
X123182798Y-89589999D01*
X123349335Y-89534814D01*
X123498656Y-89442712D01*
X123622712Y-89318656D01*
X123714814Y-89169335D01*
X123769999Y-89002798D01*
X123780500Y-88900010D01*
X123780500Y-87099990D01*
X123769999Y-86997202D01*
X123714814Y-86830665D01*
X123622712Y-86681344D01*
X123498656Y-86557288D01*
X123349335Y-86465186D01*
X123182798Y-86410001D01*
X123182796Y-86410000D01*
X123080017Y-86399500D01*
X123080010Y-86399500D01*
X121279990Y-86399500D01*
X121279982Y-86399500D01*
X121177203Y-86410000D01*
X121177202Y-86410001D01*
X121094669Y-86437349D01*
X121010667Y-86465185D01*
X121010662Y-86465187D01*
X120861342Y-86557289D01*
X120737289Y-86681342D01*
X120645187Y-86830662D01*
X120645186Y-86830665D01*
X120590001Y-86997202D01*
X120590001Y-86997203D01*
X120590000Y-86997203D01*
X120579500Y-87099982D01*
X113344426Y-87099982D01*
X113240798Y-86957350D01*
X113240794Y-86957345D01*
X113062654Y-86779205D01*
X113062649Y-86779201D01*
X112858848Y-86631132D01*
X112858847Y-86631131D01*
X112858845Y-86631130D01*
X112788747Y-86595413D01*
X112634383Y-86516760D01*
X112394785Y-86438910D01*
X112248193Y-86415692D01*
X112145962Y-86399500D01*
X111894038Y-86399500D01*
X111827738Y-86410001D01*
X111645214Y-86438910D01*
X111405616Y-86516760D01*
X111181151Y-86631132D01*
X110977350Y-86779201D01*
X110977345Y-86779205D01*
X110799205Y-86957345D01*
X110799201Y-86957350D01*
X110651132Y-87161151D01*
X110536760Y-87385616D01*
X110458910Y-87625214D01*
X110419500Y-87874038D01*
X72500500Y-87874038D01*
X72500500Y-86260137D01*
X74551700Y-86260137D01*
X74551700Y-86450863D01*
X74553969Y-86465186D01*
X74581536Y-86639241D01*
X74640471Y-86820628D01*
X74640472Y-86820631D01*
X74710132Y-86957344D01*
X74727061Y-86990569D01*
X74839167Y-87144870D01*
X74974030Y-87279733D01*
X75128331Y-87391839D01*
X75211680Y-87434307D01*
X75298268Y-87478427D01*
X75298271Y-87478428D01*
X75388964Y-87507895D01*
X75479660Y-87537364D01*
X75668037Y-87567200D01*
X75668038Y-87567200D01*
X75858762Y-87567200D01*
X75858763Y-87567200D01*
X76047140Y-87537364D01*
X76228531Y-87478427D01*
X76398469Y-87391839D01*
X76552770Y-87279733D01*
X76687633Y-87144870D01*
X76799739Y-86990569D01*
X76886327Y-86820631D01*
X76915732Y-86730131D01*
X76955167Y-86672457D01*
X77019526Y-86645258D01*
X77088372Y-86657172D01*
X77139849Y-86704415D01*
X77151593Y-86730131D01*
X77180936Y-86820437D01*
X77267492Y-86990313D01*
X77287497Y-87017847D01*
X77287498Y-87017847D01*
X77855383Y-86449962D01*
X77877358Y-86531973D01*
X77937549Y-86636227D01*
X78022673Y-86721351D01*
X78126927Y-86781542D01*
X78208936Y-86803516D01*
X77641051Y-87371400D01*
X77668594Y-87391411D01*
X77838463Y-87477964D01*
X78019773Y-87536875D01*
X78208078Y-87566700D01*
X78398722Y-87566700D01*
X78587024Y-87536875D01*
X78587027Y-87536875D01*
X78768336Y-87477964D01*
X78938199Y-87391414D01*
X78938212Y-87391406D01*
X78965747Y-87371401D01*
X78965748Y-87371400D01*
X78397864Y-86803516D01*
X78479873Y-86781542D01*
X78584127Y-86721351D01*
X78669251Y-86636227D01*
X78729442Y-86531973D01*
X78751416Y-86449963D01*
X79319300Y-87017848D01*
X79319301Y-87017847D01*
X79339306Y-86990312D01*
X79339314Y-86990299D01*
X79425864Y-86820436D01*
X79484775Y-86639127D01*
X79484775Y-86639124D01*
X79514600Y-86450822D01*
X79514600Y-86260177D01*
X79484775Y-86071875D01*
X79484775Y-86071872D01*
X79425864Y-85890563D01*
X79339311Y-85720694D01*
X79319300Y-85693151D01*
X78751416Y-86261035D01*
X78729442Y-86179027D01*
X78669251Y-86074773D01*
X78584127Y-85989649D01*
X78479873Y-85929458D01*
X78397863Y-85907483D01*
X78965747Y-85339598D01*
X78965747Y-85339597D01*
X78938213Y-85319592D01*
X78768336Y-85233035D01*
X78587026Y-85174124D01*
X78398722Y-85144300D01*
X78208078Y-85144300D01*
X78019775Y-85174124D01*
X78019772Y-85174124D01*
X77838463Y-85233035D01*
X77668588Y-85319591D01*
X77668583Y-85319595D01*
X77641051Y-85339596D01*
X77641051Y-85339599D01*
X78208936Y-85907483D01*
X78126927Y-85929458D01*
X78022673Y-85989649D01*
X77937549Y-86074773D01*
X77877358Y-86179027D01*
X77855383Y-86261036D01*
X77287499Y-85693151D01*
X77287496Y-85693151D01*
X77267495Y-85720683D01*
X77267491Y-85720688D01*
X77180936Y-85890562D01*
X77151593Y-85980868D01*
X77112155Y-86038543D01*
X77047796Y-86065741D01*
X76978949Y-86053826D01*
X76927474Y-86006581D01*
X76915731Y-85980866D01*
X76886329Y-85890374D01*
X76886327Y-85890368D01*
X76799873Y-85720694D01*
X76799739Y-85720431D01*
X76687633Y-85566130D01*
X76552770Y-85431267D01*
X76398469Y-85319161D01*
X76228531Y-85232572D01*
X76228528Y-85232571D01*
X76047141Y-85173636D01*
X75952951Y-85158718D01*
X75858763Y-85143800D01*
X75668037Y-85143800D01*
X75605244Y-85153745D01*
X75479658Y-85173636D01*
X75298271Y-85232571D01*
X75298268Y-85232572D01*
X75128330Y-85319161D01*
X74974027Y-85431269D01*
X74839169Y-85566127D01*
X74727061Y-85720430D01*
X74640472Y-85890368D01*
X74640471Y-85890371D01*
X74581536Y-86071758D01*
X74551700Y-86260137D01*
X72500500Y-86260137D01*
X72500500Y-83424500D01*
X72520185Y-83357461D01*
X72572989Y-83311706D01*
X72624500Y-83300500D01*
X126575500Y-83300500D01*
X126642539Y-83320185D01*
G37*
%TD.AperFunction*%
%TD*%
M02*
