M48
; DRILL file KiCad 10.0.1-10.0.1~ubuntu24.04.1 date 2026-05-15T15:51:49
; FORMAT={-:-/ absolute / metric / decimal}
; #@! TF.CreationDate,2026-05-15T15:51:49-04:00
; #@! TF.GenerationSoftware,Kicad,Pcbnew,10.0.1-10.0.1~ubuntu24.04.1
; #@! TF.FileFunction,Plated,1,2,PTH
FMAT,2
METRIC
; #@! TA.AperFunction,Plated,PTH,ViaDrill
T1C0.300
; #@! TA.AperFunction,Plated,PTH,ComponentDrill
T2C0.914
; #@! TA.AperFunction,Plated,PTH,ComponentDrill
T3C1.000
; #@! TA.AperFunction,Plated,PTH,ComponentDrill
T4C1.100
%
G90
G05
T1
X79.9Y-113.5
X84.8Y-113.5
X86.5Y-97.5
X87.2Y-120.4
X87.6Y-114.1
X91.5Y-113.0
X92.5Y-120.5
X93.1Y-98.5
X95.915Y-116.005
X96.3Y-102.5
X97.4Y-99.5
X97.7Y-114.22
X98.2Y-102.3
X99.1Y-116.6
X105.9Y-102.0
X108.0Y-102.0
X112.9Y-100.135
X114.8Y-109.4
X115.1Y-112.1
X116.5Y-104.8
X116.9Y-110.4
X117.6Y-104.8
X122.6Y-104.4
X122.8Y-107.287
T2
X75.763Y-86.355
X78.303Y-86.355
T4
X74.52Y-92.0
X75.72Y-106.6
X76.7Y-113.5
X76.7Y-116.04
X76.7Y-118.58
X84.68Y-92.0
X85.88Y-106.6
X112.02Y-88.0
X122.18Y-88.0
T3
X97.6Y-95.2G85X97.6Y-93.2
G05
X101.3Y-91.2G85X103.3Y-91.2
G05
X101.05Y-97.2G85X103.55Y-97.2
G05
M30
