%TF.GenerationSoftware,KiCad,Pcbnew,10.0.1-10.0.1~ubuntu24.04.1*%
%TF.CreationDate,2026-05-15T15:46:47-04:00*%
%TF.ProjectId,Buck,4275636b-2e6b-4696-9361-645f70636258,rev?*%
%TF.SameCoordinates,Original*%
%TF.FileFunction,Plated,1,2,PTH,Mixed*%
%TF.FilePolarity,Positive*%
%FSLAX46Y46*%
G04 Gerber Fmt 4.6, Leading zero omitted, Abs format (unit mm)*
G04 Created by KiCad (PCBNEW 10.0.1-10.0.1~ubuntu24.04.1) date 2026-05-15 15:46:47*
%MOMM*%
%LPD*%
G01*
G04 APERTURE LIST*
%TA.AperFunction,ViaDrill*%
%ADD10C,0.300000*%
%TD*%
%TA.AperFunction,ComponentDrill*%
%ADD11C,0.914400*%
%TD*%
G04 aperture for slot hole*
%TA.AperFunction,ComponentDrill*%
%ADD12C,1.000000*%
%TD*%
%TA.AperFunction,ComponentDrill*%
%ADD13C,1.100000*%
%TD*%
G04 APERTURE END LIST*
D10*
X79900000Y-113500000D03*
X84800000Y-113500000D03*
X86500000Y-97500000D03*
X87200000Y-120400000D03*
X87600000Y-114100000D03*
X91500000Y-113000000D03*
X92500000Y-120500000D03*
X93100000Y-98500000D03*
X95914700Y-116005000D03*
X96300000Y-102500000D03*
X97400000Y-99500000D03*
X97700000Y-114219700D03*
X98200000Y-102300000D03*
X99100000Y-116600000D03*
X105900000Y-102000000D03*
X108000000Y-102000000D03*
X112900000Y-100135000D03*
X114800000Y-109400000D03*
X115100000Y-112100000D03*
X116500000Y-104800000D03*
X116900000Y-110400000D03*
X117600000Y-104800000D03*
X122600000Y-104400000D03*
X122800000Y-107287500D03*
D11*
%TO.C,J2*%
X75763400Y-86355500D03*
X78303400Y-86355500D03*
%TO.C,J1*%
D12*
X97600000Y-93200000D02*
X97600000Y-95200000D01*
X103300000Y-91200000D02*
X101300000Y-91200000D01*
X103550000Y-97200000D02*
X101050000Y-97200000D01*
D13*
%TO.C,D2*%
X74520000Y-92000000D03*
%TO.C,D3*%
X75720000Y-106600000D03*
%TO.C,Q1*%
X76700000Y-113500000D03*
X76700000Y-116040000D03*
X76700000Y-118580000D03*
%TO.C,D2*%
X84680000Y-92000000D03*
%TO.C,D3*%
X85880000Y-106600000D03*
%TO.C,D1*%
X112020000Y-88000000D03*
X122180000Y-88000000D03*
M02*
